<?xml version="1.0" encoding="UTF-8" standalone="no"?>
<svg
   xmlns:dc="http://purl.org/dc/elements/1.1/"
   xmlns:cc="http://creativecommons.org/ns#"
   xmlns:rdf="http://www.w3.org/1999/02/22-rdf-syntax-ns#"
   xmlns:svg="http://www.w3.org/2000/svg"
   xmlns="http://www.w3.org/2000/svg"
   viewBox="0 0 240 336"
   height="336"
   width="240"
   xml:space="preserve"
   id="svg2"
   version="1.1"><metadata
     id="metadata8"><rdf:RDF><cc:Work
         rdf:about=""><dc:format>image/svg+xml</dc:format><dc:type
           rdf:resource="http://purl.org/dc/dcmitype/StillImage" /></cc:Work></rdf:RDF></metadata><defs
     id="defs6"><clipPath
       id="clipPath18"
       clipPathUnits="userSpaceOnUse"><path
         id="path16"
         d="M 0,252 H 180 V 0 H 0 Z" /></clipPath><clipPath
       id="clipPath42"
       clipPathUnits="userSpaceOnUse"><path
         id="path40"
         d="M 0,252 H 180 V 0 H 0 Z" /></clipPath></defs><g
     transform="matrix(1.3333333,0,0,-1.3333333,0,336)"
     id="g10"><g
       id="g12"><g
         clip-path="url(#clipPath18)"
         id="g14"><g
           transform="translate(171.496)"
           id="g20"><path
             id="path22"
             style="fill:#eace3a;fill-opacity:1;fill-rule:nonzero;stroke:none"
             d="m 0,0 h -162.992 c -4.697,0 -8.504,3.807 -8.504,8.504 v 234.992 c 0,4.697 3.807,8.504 8.504,8.504 L 0,252 c 4.697,0 8.504,-3.807 8.504,-8.504 V 8.504 C 8.504,3.807 4.697,0 0,0" /></g><g
           transform="translate(170.214,13.2309)"
           id="g24"><path
             id="path26"
             style="fill:#ffffff;fill-opacity:1;fill-rule:nonzero;stroke:none"
             d="m 0,0 c -4.103,-6.058 -14.358,13.273 -21.675,13.273 -7.315,0 -7.315,-17.008 -14.631,-17.008 -7.316,0 -7.316,17.008 -14.633,17.008 -7.316,0 -7.316,-17.008 -14.633,-17.008 -7.317,0 -7.317,17.008 -14.635,17.008 -7.315,0 -7.315,-17.008 -14.631,-17.008 -7.318,0 -7.318,17.008 -14.636,17.008 -7.315,0 -7.315,-17.008 -14.631,-17.008 -7.321,0 -7.321,17.008 -14.641,17.008 -7.321,0 -17.573,-19.335 -21.681,-13.276 -6.06,8.939 15.543,15.571 15.543,26.371 0,10.797 -17.008,10.797 -17.008,21.595 0,10.798 17.008,10.798 17.008,21.597 0,10.799 -17.008,10.799 -17.008,21.598 0,10.8 17.008,10.8 17.008,21.6 0,10.8 -17.008,10.8 -17.008,21.601 0,10.8 17.008,10.8 17.008,21.6 0,10.801 -17.008,10.801 -17.008,21.601 0,10.803 17.008,10.803 17.008,21.605 0,10.802 -21.603,17.43 -15.545,26.373 4.104,6.058 14.358,-13.273 21.675,-13.273 7.316,0 7.316,17.008 14.631,17.008 7.317,0 7.317,-17.008 14.633,-17.008 7.317,0 7.317,17.008 14.633,17.008 7.318,0 7.318,-17.008 14.635,-17.008 7.316,0 7.316,17.008 14.631,17.008 7.318,0 7.318,-17.008 14.636,-17.008 7.316,0 7.316,17.008 14.631,17.008 7.321,0 7.321,-17.008 14.642,-17.008 7.321,0 17.573,19.335 21.68,13.276 6.06,-8.939 -15.543,-15.571 -15.543,-26.371 0,-10.797 17.008,-10.797 17.008,-21.594 0,-10.799 -17.008,-10.799 -17.008,-21.598 0,-10.799 17.008,-10.799 17.008,-21.597 0,-10.801 -17.008,-10.801 -17.008,-21.601 0,-10.8 17.008,-10.8 17.008,-21.6 0,-10.801 -17.008,-10.801 -17.008,-21.601 0,-10.8 17.008,-10.8 17.008,-21.601 0,-10.802 -20.002,-14.069 -16.566,-24.31 C -10.532,10.048 6.058,8.944 0,0" /></g></g></g><text
       id="text30"
       style="font-variant:normal;font-weight:900;font-stretch:normal;font-size:25px;font-family:'8 Heavy';writing-mode:lr-tb;fill:#1d1d1b;fill-opacity:1;fill-rule:nonzero;stroke:none"
       transform="matrix(1,0,0,-1,84.1943,205.63)"><tspan
         id="tspan28"
         y="0"
         x="0 9.375 26.200001 45.775002 62.849998">Joker</tspan></text>
<text
       id="text34"
       style="font-variant:normal;font-weight:900;font-stretch:normal;font-size:25px;font-family:'8 Heavy';writing-mode:lr-tb;fill:#1d1d1b;fill-opacity:1;fill-rule:nonzero;stroke:none"
       transform="matrix(-1,0,0,1,95.8086,46.3687)"><tspan
         id="tspan32"
         y="0"
         x="0 9.375 26.200001 45.775002 62.849998">Joker</tspan></text>
<g
       id="g36"><g
         clip-path="url(#clipPath42)"
         id="g38"><g
           transform="translate(76.4551,112.303)"
           id="g44"><path
             id="path46"
             style="fill:#70b62e;fill-opacity:1;fill-rule:nonzero;stroke:none"
             d="m 0,0 c 2.907,2.133 8.538,-6.362 18.786,-8.859 9.111,-2.219 17.31,1.414 18.648,-1.689 0.37,-0.859 0.125,-2.028 -0.24,-3.774 -0.469,-2.24 -1.435,-4.138 -2.035,-4.912 -0.692,-0.893 -3.227,-3.295 -19.399,0.877 -16.027,4.135 -17.338,7.475 -17.621,8.74 -0.223,0.992 -0.382,3.243 0.222,5.717 0.49,2.009 0.802,3.286 1.639,3.9" /></g><g
           transform="translate(110.917,131.453)"
           id="g48"><path
             id="path50"
             style="fill:#c688ba;fill-opacity:1;fill-rule:nonzero;stroke:none"
             d="m 0,0 c 6.24,7.671 15.606,10.766 22.985,7.943 0.41,-0.157 8.087,-3.231 10.109,-10.711 0.22,-0.815 0.98,-3.931 -0.843,-10.229 -1.146,-3.959 -3.754,-10.698 -10.229,-17.69 5.219,9.169 6.809,16.945 3.972,19.315 -1.984,1.656 -5.918,0.492 -7.582,0 -4.48,-1.326 -7.239,-4.361 -9.507,-6.92 -4.216,-4.756 -3.267,-6.183 -5.749,-7.942 -3.935,-2.791 -9.266,-1.29 -18.079,1.324 -11.063,3.281 -16.595,4.922 -18.652,9.025 -2.843,5.67 2.17,9.464 -0.602,18.533 -0.574,1.878 -2.818,9.22 -7.582,9.867 -3.791,0.516 -8.37,-3.319 -10.71,-9.627 -0.577,1.06 -3.176,6.098 -1.444,12.275 1.424,5.074 4.91,7.852 6.018,8.664 4.354,3.197 8.917,3.167 10.71,3.129 4.86,-0.103 8.267,-2.103 9.146,-2.647 2.934,-1.815 4.662,-4.078 5.535,-5.415 1.509,3.617 4.523,9.363 10.349,14.32 5.093,4.333 9.926,6.014 11.433,6.498 2.64,0.849 5.29,1.669 8.785,1.204 1.625,-0.216 5.246,-0.952 8.544,-3.851 0.877,-0.771 3.437,-3.08 4.573,-6.98 0.847,-2.904 0.896,-6.661 -0.121,-6.98 -1.062,-0.333 -2.128,3.459 -6.498,7.341 -2.228,1.98 -4.478,3.979 -7.461,3.971 C 3.104,34.408 0.267,30.804 -0.963,29.243 -4.598,24.627 -4.845,19.403 -4.934,16.727 -5.2,8.802 -1.823,2.765 0,0" /></g><g
           transform="translate(61.3731,132.898)"
           id="g52"><path
             id="path54"
             style="fill:#d05251;fill-opacity:1;fill-rule:nonzero;stroke:none"
             d="m 0,0 c 0,-1.632 -1.323,-2.955 -2.955,-2.955 -1.632,0 -2.955,1.323 -2.955,2.955 0,1.632 1.323,2.955 2.955,2.955 C -1.323,2.955 0,1.632 0,0" /></g><g
           transform="translate(135.65,152)"
           id="g56"><path
             id="path58"
             style="fill:#26a09b;fill-opacity:1;fill-rule:nonzero;stroke:none"
             d="m 0,0 c 0,-1.632 -1.323,-2.955 -2.955,-2.955 -1.632,0 -2.955,1.323 -2.955,2.955 0,1.632 1.323,2.955 2.955,2.955 C -1.323,2.955 0,1.632 0,0" /></g><g
           transform="translate(137.413,102.77)"
           id="g60"><path
             id="path62"
             style="fill:#eace3a;fill-opacity:1;fill-rule:nonzero;stroke:none"
             d="m 0,0 c 0,-1.632 -1.323,-2.955 -2.955,-2.955 -1.632,0 -2.955,1.323 -2.955,2.955 0,1.632 1.323,2.955 2.955,2.955 C -1.323,2.955 0,1.632 0,0" /></g><g
           transform="translate(51.4392,82.8675)"
           id="g64"><path
             id="path66"
             style="fill:#70b62e;fill-opacity:1;fill-rule:nonzero;stroke:none"
             d="m 0,0 c 0.201,1.4 4.129,0.644 7.644,2.83 3.125,1.942 4.36,5.238 5.597,4.76 0.342,-0.132 0.603,-0.522 0.991,-1.104 0.499,-0.747 0.765,-1.539 0.817,-1.92 C 15.109,4.127 15.086,2.757 9.474,-0.628 3.912,-3.982 2.616,-3.432 2.183,-3.164 1.844,-2.954 1.17,-2.38 0.642,-1.531 0.214,-0.841 -0.058,-0.403 0,0" /></g><g
           transform="translate(55.5424,97.7849)"
           id="g68"><path
             id="path70"
             style="fill:#c688ba;fill-opacity:1;fill-rule:nonzero;stroke:none"
             d="M 0,0 C -0.435,3.856 1.271,7.33 4.09,8.622 4.247,8.694 7.217,10.001 9.868,8.512 10.157,8.349 11.239,7.707 12.503,5.465 13.297,4.056 14.469,1.474 14.649,-2.261 13.514,1.72 11.772,4.302 10.328,4.158 9.319,4.058 8.564,2.635 8.245,2.034 7.386,0.414 7.478,-1.192 7.572,-2.531 c 0.174,-2.488 0.834,-2.614 0.646,-3.793 -0.3,-1.869 -2.185,-2.951 -5.339,-4.702 -3.959,-2.198 -5.938,-3.297 -7.653,-2.746 -2.37,0.761 -2.056,3.209 -5.358,4.924 -0.684,0.355 -3.358,1.743 -4.848,0.587 -1.186,-0.921 -1.37,-3.258 -0.246,-5.646 -0.455,0.129 -2.581,0.785 -3.836,2.968 -1.03,1.793 -0.85,3.533 -0.774,4.066 0.301,2.099 1.563,3.369 2.066,3.861 1.364,1.333 2.861,1.738 3.255,1.835 1.315,0.323 2.424,0.186 3.038,0.063 -0.599,1.417 -1.381,3.84 -1.169,6.834 0.186,2.618 1.042,4.434 1.321,4.989 0.487,0.973 0.986,1.941 2.076,2.792 0.507,0.396 1.708,1.208 3.427,1.336 0.457,0.034 1.807,0.117 3.212,-0.636 1.046,-0.561 2.113,-1.58 1.923,-1.952 -0.199,-0.389 -1.554,0.354 -3.843,0.196 -1.167,-0.08 -2.345,-0.161 -3.163,-0.999 C -8.788,10.324 -8.558,8.539 -8.458,7.765 -8.163,5.478 -6.768,3.974 -6.042,3.214 -3.895,0.962 -1.275,0.249 0,0" /></g><g
           transform="translate(41.5248,84.3005)"
           id="g72"><path
             id="path74"
             style="fill:#d05251;fill-opacity:1;fill-rule:nonzero;stroke:none"
             d="m 0,0 c 0.457,-0.448 0.464,-1.183 0.016,-1.64 -0.448,-0.457 -1.183,-0.464 -1.64,-0.016 -0.457,0.449 -0.464,1.183 -0.016,1.64 C -1.191,0.441 -0.457,0.448 0,0" /></g><g
           transform="translate(56.5809,110.36)"
           id="g76"><path
             id="path78"
             style="fill:#26a09b;fill-opacity:1;fill-rule:nonzero;stroke:none"
             d="m 0,0 c 0.457,-0.448 0.464,-1.183 0.016,-1.64 -0.448,-0.457 -1.183,-0.464 -1.64,-0.016 -0.457,0.449 -0.464,1.183 -0.016,1.64 C -1.191,0.441 -0.457,0.448 0,0" /></g><g
           transform="translate(70.859,97.328)"
           id="g80"><path
             id="path82"
             style="fill:#eace3a;fill-opacity:1;fill-rule:nonzero;stroke:none"
             d="m 0,0 c 0.457,-0.448 0.464,-1.183 0.016,-1.64 -0.448,-0.457 -1.183,-0.464 -1.64,-0.016 -0.457,0.449 -0.464,1.183 -0.016,1.64 C -1.191,0.441 -0.457,0.448 0,0" /></g></g></g></g></svg>